<svg width="48" height="48" viewBox="0 0 48 48" fill="none" xmlns="http://www.w3.org/2000/svg">
<path d="M31.665 28.811C31.378 29.475 31.038 30.086 30.644 30.648C30.107 31.415 29.666 31.945 29.328 32.24C28.803 32.722 28.239 32.97 27.636 32.984C27.204 32.984 26.682 32.861 26.074 32.611C25.464 32.362 24.904 32.24 24.391 32.24C23.854 32.24 23.278 32.362 22.661 32.611C22.045 32.861 21.547 32.992 21.166 33.004C20.589 33.029 20.012 32.775 19.437 32.24C19.07 31.92 18.611 31.37 18.06 30.592C17.47 29.763 16.985 28.798 16.605 27.701C16.198 26.514 15.994 25.366 15.994 24.254C15.994 22.981 16.269 21.882 16.82 20.962C17.254 20.222 17.83 19.639 18.55 19.211C19.271 18.782 20.051 18.563 20.89 18.549C21.35 18.549 21.953 18.691 22.7 18.971C23.447 19.251 23.927 19.393 24.136 19.393C24.294 19.393 24.825 19.226 25.729 18.895C26.582 18.588 27.302 18.461 27.892 18.511C29.492 18.64 30.693 19.27 31.492 20.406C30.062 21.273 29.355 22.486 29.369 24.043C29.381 25.256 29.822 26.265 30.686 27.066C31.078 27.438 31.515 27.725 32.001 27.929C31.895 28.236 31.783 28.529 31.665 28.811ZM27.998 14.38C27.998 15.33 27.65 16.218 26.959 17.039C26.123 18.015 25.113 18.58 24.018 18.491C24.004 18.377 23.997 18.257 23.997 18.131C23.997 17.218 24.393 16.242 25.1 15.443C25.452 15.039 25.9 14.702 26.443 14.434C26.985 14.17 27.497 14.024 27.979 13.999C27.992 14.127 27.998 14.254 27.998 14.38Z" fill="black" fill-opacity="0.36"/>
<rect x="0.5" y="0.5" width="47" height="47" rx="23.5" stroke="black" stroke-opacity="0.12"/>
</svg>
