<svg width="23" height="20" viewBox="0 0 23 20" fill="none" xmlns="http://www.w3.org/2000/svg">
<path fill-rule="evenodd" clip-rule="evenodd" d="M9.5 17.3673H10.5V15.3673H9.5C7.84314 15.3673 6.5 14.0242 6.5 12.3673L6.5 4.78155L8.79289 7.07445L10.2071 5.66023L6.20711 1.66023L5.5 0.953125L4.79289 1.66023L0.792892 5.66023L2.20711 7.07445L4.5 4.78155L4.5 12.3673C4.5 15.1288 6.73857 17.3673 9.5 17.3673ZM13.5 3.36734L12.5 3.36734V5.36734H13.5C15.1569 5.36734 16.5 6.71048 16.5 8.36734V15.9531L14.2071 13.6602L12.7929 15.0744L16.7929 19.0744L17.5 19.7816L18.2071 19.0744L22.2071 15.0744L20.7929 13.6602L18.5 15.9531L18.5 8.36734C18.5 5.60591 16.2614 3.36734 13.5 3.36734Z" fill="black" fill-opacity="0.64"/>
</svg>
