<svg width="48" height="48" viewBox="0 0 48 48" fill="none" xmlns="http://www.w3.org/2000/svg">
<path d="M24.001 14.002C18.479 14.002 14.002 18.479 14.002 24.001C14.002 28.991 17.658 33.127 22.439 33.88V26.892H19.899V24.001H22.439V21.798C22.439 19.29 23.932 17.907 26.215 17.907C27.309 17.907 28.455 18.102 28.455 18.102V20.561H27.191C25.951 20.561 25.563 21.333 25.563 22.124V23.999H28.334L27.891 26.89H25.563V33.878C30.344 33.129 34 28.992 34 24.001C34 18.479 29.523 14.002 24.001 14.002Z" fill="black" fill-opacity="0.36"/>
<rect x="0.5" y="0.5" width="47" height="47" rx="23.5" stroke="black" stroke-opacity="0.12"/>
</svg>
