<svg width="57" height="11" viewBox="0 0 57 11" fill="none" xmlns="http://www.w3.org/2000/svg">
<path d="M6.706 5.00287H4.55V2.86087H3.038V5.00287H0.896V6.41687H3.038V8.61487H4.55V6.41687H6.706V5.00287ZM19.4749 2.25887V0.746874H12.5309V10.5469H14.1689V6.76687H19.2089V5.28287H14.1689V2.25887H19.4749ZM24.2255 10.7009C26.4655 10.7009 27.9075 9.16087 27.9075 7.08887C27.9075 5.01687 26.4655 3.47688 24.2255 3.47688C21.9715 3.47688 20.5295 5.01687 20.5295 7.08887C20.5295 9.16087 21.9715 10.7009 24.2255 10.7009ZM24.2255 9.27287C22.9235 9.27287 22.0975 8.29287 22.0975 7.08887C22.0975 5.88487 22.9235 4.90487 24.2255 4.90487C25.5135 4.90487 26.3395 5.88487 26.3395 7.08887C26.3395 8.29287 25.5135 9.27287 24.2255 9.27287ZM31.0663 9.11887V0.746874H29.4983V10.5469H32.2843V9.11887H31.0663ZM35.0208 9.11887V0.746874H33.4528V10.5469H36.2388V9.11887H35.0208ZM40.6552 10.7009C42.8952 10.7009 44.3372 9.16087 44.3372 7.08887C44.3372 5.01687 42.8952 3.47688 40.6552 3.47688C38.4012 3.47688 36.9592 5.01687 36.9592 7.08887C36.9592 9.16087 38.4012 10.7009 40.6552 10.7009ZM40.6552 9.27287C39.3532 9.27287 38.5272 8.29287 38.5272 7.08887C38.5272 5.88487 39.3532 4.90487 40.6552 4.90487C41.9432 4.90487 42.7692 5.88487 42.7692 7.08887C42.7692 8.29287 41.9432 9.27287 40.6552 9.27287ZM54.4607 3.63087L53.7047 6.17887L52.9347 8.78287L51.1707 3.63087H49.8407L48.0627 8.75487L47.3207 6.17887L46.5367 3.63087H44.8707L47.1807 10.5469H48.8607L49.5187 8.57287L50.5127 5.80087L51.5067 8.57287L52.1647 10.5469H53.8307L56.1267 3.63087H54.4607Z" fill="#1178AB"/>
</svg>
