<svg width="48" height="48" viewBox="0 0 48 48" fill="none" xmlns="http://www.w3.org/2000/svg">
<path d="M31.8034 22.363H23.6971V25.8395H28.3621C27.9279 28.0487 26.1104 29.318 23.6971 29.318C20.8516 29.318 18.5581 26.9446 18.5581 23.999C18.5581 21.0544 20.8516 18.681 23.6971 18.681C24.9228 18.681 26.0306 19.1313 26.8999 19.8677L29.431 17.2495C27.889 15.8583 25.9118 15 23.6971 15C18.8745 15 15 19.0084 15 24C15 28.9916 18.8735 33 23.6971 33C28.0457 33 32 29.727 32 24C32 23.4681 31.9211 22.8949 31.8034 22.363Z" fill="black" fill-opacity="0.36"/>
<rect x="0.5" y="0.5" width="47" height="47" rx="23.5" stroke="black" stroke-opacity="0.12"/>
</svg>
