<svg width="24" height="24" viewBox="0 0 24 24" fill="none" xmlns="http://www.w3.org/2000/svg">
<path fill-rule="evenodd" clip-rule="evenodd" d="M16.0314 5.76875C14.7788 5.27268 13.4131 5 11.9836 5C7.4713 5 3.59581 7.71673 1.8993 11.5996L1.72437 12L1.89929 12.4004C2.62756 14.0672 3.75736 15.5191 5.16669 16.6335L6.59259 15.2076C5.46934 14.3662 4.54908 13.2682 3.91882 12C5.39243 9.03493 8.45138 7 11.9836 7C12.841 7 13.6705 7.11991 14.4563 7.34392L16.0314 5.76875ZM17.9021 6.72647L16.4462 8.18244C17.9928 9.06715 19.252 10.3978 20.0483 12C18.5747 14.9651 15.5157 17 11.9836 17C10.7022 17 9.48304 16.7322 8.3793 16.2493L6.88114 17.7475C8.40592 18.5473 10.1417 19 11.9836 19C16.4958 19 20.3713 16.2833 22.0678 12.4004L22.2428 12L22.0678 11.5996C21.1907 9.59208 19.7311 7.89626 17.9021 6.72647ZM10.2093 14.4193C10.7062 14.7844 11.3197 15 11.9836 15C13.6404 15 14.9836 13.6569 14.9836 12C14.9836 11.3361 14.7679 10.7226 14.4029 10.2257L10.2093 14.4193ZM12.7113 9.08888C12.4783 9.03082 12.2345 9 11.9836 9C10.3267 9 8.98357 10.3431 8.98357 12C8.98357 12.251 9.01438 12.4947 9.07244 12.7277L12.7113 9.08888Z" stroke-width="0" fill="black" fill-opacity="0.5" stroke="black" stroke-opacity="1" stroke-width="0.01" />
<path d="M21 5L5 21" stroke="black" stroke-opacity="0.5" stroke-width="2"/>
</svg>
