<svg width="24" height="25" viewBox="0 0 24 25" fill="none" xmlns="http://www.w3.org/2000/svg">
<path fill-rule="evenodd" clip-rule="evenodd" d="M2 11.2635C2 6.909 6.47712 3.37891 12 3.37891C17.5229 3.37891 22 6.909 22 11.2635C22 15.6181 17.5229 19.1481 12 19.1481C11.3938 19.1481 10.8003 19.1057 10.2238 19.0241C9.64683 19.4307 6.31308 21.7725 5.99846 21.8164C5.99846 21.8164 5.86942 21.8666 5.75971 21.802C5.65 21.7374 5.6699 21.5679 5.6699 21.5679C5.70298 21.3425 6.53413 18.4723 6.68731 17.944C3.87173 16.5491 2 14.0788 2 11.2635ZM5.8942 13.465C5.8942 13.7688 6.15295 14.0159 6.47113 14.0159C6.7893 14.0159 7.04805 13.7688 7.04805 13.465V10.0376H7.94824C8.26036 10.0376 8.51439 9.7841 8.51439 9.47266C8.51439 9.16122 8.26045 8.90775 7.94824 8.90775H4.99401C4.68189 8.90775 4.42786 9.16122 4.42786 9.47266C4.42786 9.7841 4.6818 10.0376 4.99401 10.0376H5.8942V13.465ZM11.0499 13.7536C11.1054 13.9107 11.2894 14.0084 11.53 14.0084C11.6565 14.0085 11.7816 13.9814 11.8967 13.9289C12.0557 13.8557 12.2086 13.6539 12.033 13.1085L10.6536 9.47785C10.5562 9.20102 10.2609 8.91631 9.88411 8.90785C9.50834 8.91641 9.21305 9.20102 9.11584 9.47727L7.73584 13.1096C7.56064 13.6537 7.71353 13.8554 7.87257 13.9288C7.98767 13.9814 8.11275 14.0086 8.2393 14.0084C8.47988 14.0084 8.66382 13.9108 8.71911 13.754L9.00497 13.0056L10.7642 13.0057L11.0499 13.7536ZM9.88459 10.3468L10.4608 11.9838H9.30834L9.88459 10.3468ZM12.4086 13.4029C12.4086 13.6945 12.6566 13.9318 12.9615 13.9318H14.8125C15.1174 13.9318 15.3654 13.6945 15.3654 13.4029C15.3654 13.1114 15.1174 12.8741 14.8125 12.8741H13.5865V9.48468C13.5865 9.1665 13.3223 8.90775 12.9976 8.90775C12.6729 8.90775 12.4086 9.1665 12.4086 9.48468V13.4029ZM15.5898 13.4315C15.5898 13.7497 15.8485 14.0084 16.1667 14.0084C16.3197 14.0082 16.4664 13.9473 16.5746 13.8391C16.6828 13.7309 16.7436 13.5842 16.7438 13.4312V12.1725L16.944 11.9723L18.297 13.765C18.3506 13.8365 18.4202 13.8945 18.5002 13.9344C18.5802 13.9742 18.6685 13.9947 18.7579 13.9943C18.8832 13.9946 19.0051 13.9537 19.1049 13.8779C19.1655 13.8324 19.2165 13.7754 19.2549 13.71C19.2934 13.6447 19.3184 13.5724 19.3287 13.4974C19.3395 13.4223 19.3352 13.3459 19.3162 13.2726C19.2972 13.1992 19.2638 13.1303 19.218 13.07L17.7979 11.1886L19.1126 9.8741C19.203 9.78362 19.2482 9.65891 19.2399 9.52285C19.2316 9.38795 19.1713 9.25804 19.0703 9.15708C18.9619 9.04881 18.8173 8.9867 18.6732 8.9867C18.5498 8.9867 18.436 9.03227 18.3532 9.11506L16.7436 10.7247V9.48468C16.7436 9.1665 16.4849 8.90775 16.1667 8.90775C15.8485 8.90775 15.5898 9.1665 15.5898 9.48468V13.4315Z" fill="black" fill-opacity="0.9"/>
</svg>
