<svg width="48" height="48" viewBox="0 0 48 48" fill="none" xmlns="http://www.w3.org/2000/svg">
<path fill-rule="evenodd" clip-rule="evenodd" d="M14 23.1732C14 18.8187 18.4771 15.2886 24 15.2886C29.5229 15.2886 34 18.8187 34 23.1732C34 27.5278 29.5229 31.0578 24 31.0578C23.3938 31.0578 22.8003 31.0154 22.2238 30.9338C21.6468 31.3404 18.3131 33.6821 17.9985 33.7261C17.9985 33.7261 17.8694 33.7763 17.7597 33.7117C17.65 33.647 17.6699 33.4776 17.6699 33.4776C17.703 33.2521 18.5341 30.3819 18.6873 29.8537C15.8717 28.4588 14 25.9885 14 23.1732ZM17.8942 25.3746C17.8942 25.6785 18.153 25.9256 18.4711 25.9256C18.7893 25.9256 19.048 25.6785 19.048 25.3746V21.9472H19.9482C20.2604 21.9472 20.5144 21.6938 20.5144 21.3823C20.5144 21.0709 20.2605 20.8174 19.9482 20.8174H16.994C16.6819 20.8174 16.4279 21.0709 16.4279 21.3823C16.4279 21.6938 16.6818 21.9472 16.994 21.9472H17.8942V25.3746ZM23.0499 25.6633C23.1054 25.8204 23.2894 25.9181 23.53 25.9181C23.6565 25.9182 23.7816 25.8911 23.8967 25.8386C24.0557 25.7654 24.2086 25.5636 24.033 25.0182L22.6536 21.3875C22.5562 21.1107 22.2609 20.826 21.8841 20.8175C21.5083 20.8261 21.213 21.1107 21.1158 21.3869L19.7358 25.0192C19.5606 25.5634 19.7135 25.7651 19.8726 25.8385C19.9877 25.8911 20.1128 25.9182 20.2393 25.9181C20.4799 25.9181 20.6638 25.8205 20.7191 25.6637L21.005 24.9153L22.7642 24.9154L23.0499 25.6633ZM21.8846 22.2565L22.4608 23.8935H21.3083L21.8846 22.2565ZM24.4086 25.3126C24.4086 25.6042 24.6566 25.8415 24.9615 25.8415H26.8125C27.1174 25.8415 27.3654 25.6042 27.3654 25.3126C27.3654 25.0211 27.1174 24.7838 26.8125 24.7838H25.5865V21.3943C25.5865 21.0762 25.3223 20.8174 24.9976 20.8174C24.6729 20.8174 24.4086 21.0762 24.4086 21.3943V25.3126ZM27.5898 25.3412C27.5898 25.6593 27.8485 25.9181 28.1667 25.9181C28.3197 25.9179 28.4664 25.857 28.5746 25.7488C28.6828 25.6406 28.7436 25.4939 28.7438 25.3409V24.0821L28.944 23.8819L30.297 25.6746C30.3506 25.7462 30.4202 25.8042 30.5002 25.844C30.5802 25.8839 30.6685 25.9044 30.7579 25.904C30.8832 25.9043 31.0051 25.8634 31.1049 25.7875C31.1655 25.7421 31.2165 25.685 31.2549 25.6197C31.2934 25.5544 31.3184 25.4821 31.3287 25.407C31.3395 25.332 31.3352 25.2556 31.3162 25.1822C31.2972 25.1089 31.2638 25.04 31.218 24.9796L29.7979 23.0983L31.1126 21.7838C31.203 21.6933 31.2482 21.5686 31.2399 21.4325C31.2316 21.2976 31.1713 21.1677 31.0703 21.0667C30.9619 20.9585 30.8173 20.8964 30.6732 20.8964C30.5498 20.8964 30.436 20.9419 30.3532 21.0247L28.7436 22.6343V21.3943C28.7436 21.0762 28.4849 20.8174 28.1667 20.8174C27.8485 20.8174 27.5898 21.0762 27.5898 21.3943V25.3412Z" fill="black" fill-opacity="0.36"/>
<rect x="0.5" y="0.5" width="47" height="47" rx="23.5" stroke="black" stroke-opacity="0.12"/>
</svg>
