<svg width="65" height="65" viewBox="0 0 65 65" fill="none" xmlns="http://www.w3.org/2000/svg">
<rect x="0.884766" y="0.167969" width="64" height="64" fill="#FF3E80" fill-opacity="0.5"/>
<path d="M24.9205 29.754C26.0819 29.754 27.1392 29.988 28.0925 30.456C29.0459 30.924 29.7999 31.5913 30.3545 32.458C30.9092 33.3073 31.1865 34.2953 31.1865 35.422C31.1865 36.6353 30.8832 37.7013 30.2765 38.62C29.6699 39.5386 28.8379 40.2493 27.7805 40.752C26.7405 41.2373 25.5792 41.48 24.2965 41.48C21.7485 41.48 19.7552 40.7 18.3165 39.14C16.8779 37.58 16.1585 35.3526 16.1585 32.458C16.1585 30.3953 16.5485 28.6273 17.3285 27.154C18.1085 25.6806 19.1919 24.5626 20.5785 23.8C21.9825 23.0373 23.6032 22.656 25.4405 22.656C26.4112 22.656 27.3385 22.7686 28.2225 22.994C29.1239 23.202 29.8865 23.5053 30.5105 23.904L28.9505 26.998C28.0492 26.3913 26.9139 26.088 25.5445 26.088C24.0019 26.088 22.7799 26.5386 21.8785 27.44C20.9772 28.3413 20.4919 29.65 20.4225 31.366C21.4972 30.2913 22.9965 29.754 24.9205 29.754ZM24.0625 38.334C24.9639 38.334 25.6919 38.0913 26.2465 37.606C26.8185 37.1206 27.1045 36.462 27.1045 35.63C27.1045 34.798 26.8185 34.1393 26.2465 33.654C25.6919 33.1513 24.9465 32.9 24.0105 32.9C23.0919 32.9 22.3379 33.16 21.7485 33.68C21.1592 34.1826 20.8645 34.8326 20.8645 35.63C20.8645 36.4273 21.1505 37.0773 21.7225 37.58C22.2945 38.0826 23.0745 38.334 24.0625 38.334ZM49.3792 37.346H46.4152V41.168H42.3072V37.346H32.5052V34.512L41.0852 22.968H45.5052L37.5492 33.914H42.4372V30.508H46.4152V33.914H49.3792V37.346Z" fill="white"/>
</svg>
