<svg width="20" height="14" viewBox="0 0 20 14" fill="none" xmlns="http://www.w3.org/2000/svg">
<path fill-rule="evenodd" clip-rule="evenodd" d="M7.82837 0H18.9999C19.5522 0 19.9999 0.447716 19.9999 1V13C19.9999 13.5523 19.5522 14 18.9999 14H7.82837C7.29794 14 6.78923 13.7893 6.41416 13.4142L1.41416 8.41421C0.633108 7.63316 0.633106 6.36684 1.41415 5.58579L6.41416 0.585786C6.78923 0.210714 7.29794 0 7.82837 0ZM12.4999 8.41421L10.207 10.7071L8.79284 9.29289L11.0857 7L8.79284 4.70711L10.207 3.29289L12.4999 5.58579L14.7928 3.29289L16.207 4.70711L13.9142 7L16.207 9.29289L14.7928 10.7071L12.4999 8.41421Z" fill="black" fill-opacity="0.64"/>
</svg>
