<svg width="23" height="23" viewBox="0 0 23 23" fill="none" xmlns="http://www.w3.org/2000/svg">
<path fill-rule="evenodd" clip-rule="evenodd" d="M18 10.0684C18 14.4866 14.4183 18.0684 10 18.0684C5.58172 18.0684 2 14.4866 2 10.0684C2 5.65008 5.58172 2.06836 10 2.06836C14.4183 2.06836 18 5.65008 18 10.0684ZM16.3287 17.8113C14.6049 19.222 12.4013 20.0684 10 20.0684C4.47715 20.0684 0 15.5912 0 10.0684C0 4.54551 4.47715 0.0683594 10 0.0683594C15.5228 0.0683594 20 4.54551 20 10.0684C20 12.4696 19.1536 14.6732 17.7429 16.3971L22.7071 21.3613L21.2929 22.7755L16.3287 17.8113Z" fill="black" fill-opacity="0.28"/>
</svg>
