<svg width="17" height="21" viewBox="0 0 17 21" fill="none" xmlns="http://www.w3.org/2000/svg">
<path fill-rule="evenodd" clip-rule="evenodd" d="M2.79289 6.66023L7.79289 1.66023L8.5 0.953125L9.20711 1.66023L14.2071 6.66023L12.7929 8.07444L9.5 4.78155V13.3673H7.5L7.5 4.78155L4.20711 8.07445L2.79289 6.66023ZM12.7426 16.61C13.8679 15.4848 14.5 13.9586 14.5 12.3673L16.5 12.3673C16.5 14.4891 15.6571 16.5239 14.1569 18.0242C12.6566 19.5245 10.6217 20.3673 8.5 20.3673C6.37827 20.3673 4.34344 19.5245 2.84315 18.0242C1.34285 16.5239 0.5 14.4891 0.5 12.3673H2.5C2.5 13.9586 3.13214 15.4848 4.25736 16.61C5.38258 17.7352 6.9087 18.3673 8.5 18.3673C10.0913 18.3673 11.6174 17.7352 12.7426 16.61Z" fill="black" fill-opacity="0.64"/>
</svg>
