<svg width="24" height="24" viewBox="0 0 24 24" fill="none" xmlns="http://www.w3.org/2000/svg">
<path fill-rule="evenodd" clip-rule="evenodd" d="M17.5 4C16.6716 4 16 4.67157 16 5.5C16 6.32843 16.6716 7 17.5 7C18.3284 7 19 6.32843 19 5.5C19 4.67157 18.3284 4 17.5 4ZM14 5.5C14 3.567 15.567 2 17.5 2C19.433 2 21 3.567 21 5.5C21 7.433 19.433 9 17.5 9C16.5073 9 15.6111 8.58671 14.9741 7.92281L9.83113 10.9229C9.94077 11.2622 10 11.6242 10 12C10 12.3758 9.94077 12.7378 9.83113 13.0771L14.9741 16.0772C15.6111 15.4133 16.5073 15 17.5 15C19.433 15 21 16.567 21 18.5C21 20.433 19.433 22 17.5 22C15.567 22 14 20.433 14 18.5C14 18.2809 14.0201 18.0665 14.0586 17.8586L8.69251 14.7283C8.09254 15.2111 7.33001 15.5 6.5 15.5C4.567 15.5 3 13.933 3 12C3 10.067 4.567 8.5 6.5 8.5C7.33002 8.5 8.09255 8.78892 8.69252 9.27168L14.0586 6.14144C14.0201 5.93349 14 5.7191 14 5.5ZM6.5 10.5C5.67157 10.5 5 11.1716 5 12C5 12.8284 5.67157 13.5 6.5 13.5C7.32843 13.5 8 12.8284 8 12C8 11.1716 7.32843 10.5 6.5 10.5ZM16 18.5C16 17.6716 16.6716 17 17.5 17C18.3284 17 19 17.6716 19 18.5C19 19.3284 18.3284 20 17.5 20C16.6716 20 16 19.3284 16 18.5Z" fill="black" fill-opacity="0.5"/>
</svg>
