<svg width="24" height="24" viewBox="0 0 24 24" fill="none" xmlns="http://www.w3.org/2000/svg">
<path d="M2.83209 12L1.91574 11.5996L1.74081 12L1.91574 12.4004L2.83209 12ZM21.1679 12L22.0843 12.4004L22.2592 12L22.0843 11.5996L21.1679 12ZM3.74845 12.4004C5.13816 9.21965 8.31098 7 12 7V5C7.48775 5 3.61225 7.71673 1.91574 11.5996L3.74845 12.4004ZM12 7C15.689 7 18.8618 9.21966 20.2516 12.4004L22.0843 11.5996C20.3878 7.71674 16.5123 5 12 5V7ZM20.2516 11.5996C18.8618 14.7804 15.689 17 12 17V19C16.5123 19 20.3878 16.2833 22.0843 12.4004L20.2516 11.5996ZM12 17C8.31098 17 5.13816 14.7803 3.74845 11.5996L1.91574 12.4004C3.61225 16.2833 7.48775 19 12 19V17Z" fill="black" fill-opacity="0.5" stroke="black" stroke-opacity="1" stroke-width="0.01" />
<circle cx="12" cy="12" r="3" fill="black" stroke-width="0" fill-opacity="0.5" stroke="black" stroke-opacity="1" stroke-width="0.01"/>
</svg>
