<svg width="24" height="25" viewBox="0 0 24 25" fill="none" xmlns="http://www.w3.org/2000/svg">
<path d="M22.4594 6.10222C21.6898 6.44357 20.8626 6.67426 19.9946 6.77799C20.8805 6.24685 21.5611 5.40582 21.8815 4.40362C21.0522 4.89548 20.1338 5.25262 19.1562 5.44504C18.3734 4.61096 17.2581 4.08984 16.0237 4.08984C13.6536 4.08984 11.7319 6.01131 11.7319 8.38139C11.7319 8.71774 11.7699 9.0453 11.8431 9.35944C8.27633 9.18044 5.114 7.47187 2.99734 4.87535C2.6279 5.50919 2.41626 6.2464 2.41626 7.03293C2.41626 8.52188 3.17389 9.83547 4.32548 10.6051C3.62204 10.5827 2.96021 10.3897 2.38164 10.0683C2.38123 10.0862 2.38123 10.1041 2.38123 10.1222C2.38123 12.2016 3.86057 13.9361 5.82383 14.3304C5.46373 14.4285 5.08458 14.481 4.69318 14.481C4.41665 14.481 4.1478 14.454 3.88571 14.404C4.43186 16.1089 6.01677 17.3498 7.89478 17.3843C6.426 18.5355 4.57552 19.2216 2.56478 19.2216C2.21837 19.2216 1.87676 19.2012 1.54102 19.1615C3.44028 20.3792 5.69615 21.0898 8.11974 21.0898C16.0136 21.0898 20.3304 14.5503 20.3304 8.87902C20.3304 8.69298 20.3262 8.50789 20.3179 8.32379C21.1565 7.7187 21.8841 6.96286 22.4594 6.10222Z" fill="black" fill-opacity="0.9"/>
</svg>
