<svg width="48" height="48" viewBox="0 0 48 48" fill="none" xmlns="http://www.w3.org/2000/svg">
<path d="M34.4592 18.0124C33.6896 18.3537 32.8624 18.5844 31.9944 18.6881C32.8803 18.157 33.5609 17.316 33.8813 16.3138C33.052 16.8056 32.1336 17.1628 31.156 17.3552C30.3732 16.5211 29.2579 16 28.0235 16C25.6534 16 23.7317 17.9215 23.7317 20.2915C23.7317 20.6279 23.7697 20.9555 23.8429 21.2696C20.2761 21.0906 17.1138 19.382 14.9971 16.7855C14.6277 17.4194 14.416 18.1566 14.416 18.9431C14.416 20.432 15.1737 21.7456 16.3252 22.5153C15.6218 22.4929 14.96 22.2999 14.3814 21.9785C14.381 21.9964 14.381 22.0143 14.381 22.0324C14.381 24.1118 15.8603 25.8463 17.8236 26.2406C17.4635 26.3387 17.0844 26.3912 16.693 26.3912C16.4164 26.3912 16.1476 26.3642 15.8855 26.3142C16.4316 28.0191 18.0165 29.26 19.8946 29.2945C18.4258 30.4457 16.5753 31.1318 14.5645 31.1318C14.2181 31.1318 13.8765 31.1114 13.5408 31.0717C15.44 32.2894 17.6959 33 20.1195 33C28.0134 33 32.3302 26.4605 32.3302 20.7892C32.3302 20.6031 32.326 20.418 32.3177 20.2339C33.1563 19.6289 33.8839 18.873 34.4592 18.0124Z" fill="black" fill-opacity="0.36"/>
<rect x="0.5" y="0.5" width="47" height="47" rx="23.5" stroke="black" stroke-opacity="0.12"/>
</svg>
