<svg width="17" height="14" viewBox="0 0 17 14" fill="none" xmlns="http://www.w3.org/2000/svg">
<path d="M9.79285 4.63679L9.08575 3.92969L10.5 2.51547L11.2071 3.22258L9.79285 4.63679ZM14.6666 8.09635L15.3737 7.38925L16.0808 8.09635L15.3737 8.80346L14.6666 8.09635ZM11.2071 12.9701L10.5 13.6772L9.08575 12.263L9.79285 11.5559L11.2071 12.9701ZM0.333293 1.42969V0.429687L2.33329 0.429687V1.42969L0.333293 1.42969ZM11.2071 3.22258L15.3737 7.38925L13.9595 8.80346L9.79285 4.63679L11.2071 3.22258ZM15.3737 8.80346L11.2071 12.9701L9.79285 11.5559L13.9595 7.38925L15.3737 8.80346ZM14.6666 9.09635L7.33329 9.09635V7.09635L14.6666 7.09635V9.09635ZM0.333293 2.09636V1.42969L2.33329 1.42969V2.09636L0.333293 2.09636ZM7.33329 9.09635C3.4673 9.09635 0.333293 5.96235 0.333293 2.09636L2.33329 2.09636C2.33329 4.85778 4.57187 7.09635 7.33329 7.09635V9.09635Z" fill="#ADB4BA"/>
</svg>
