<svg width="19" height="18" viewBox="0 0 19 18" fill="none" xmlns="http://www.w3.org/2000/svg">
<path fill-rule="evenodd" clip-rule="evenodd" d="M6.5 2C6.5 0.895431 7.39543 0 8.5 0H16.5C17.6046 0 18.5 0.89543 18.5 2V10C18.5 11.1046 17.6046 12 16.5 12H14.5V10H16.5V2L8.5 2V4H6.5V2ZM2.5 6C1.39543 6 0.5 6.89543 0.5 8V16C0.5 17.1046 1.39543 18 2.5 18H10.5C11.6046 18 12.5 17.1046 12.5 16V8C12.5 6.89543 11.6046 6 10.5 6H2.5ZM2.5 16V8H10.5V16H2.5Z" fill="#ffffff" fill-opacity="1" stroke="ffffff" stroke-opacity="1" stroke-width="0.01" />
</svg>
